<svg fill="none" height="24" viewBox="0 0 24 24" width="24" xmlns="http://www.w3.org/2000/svg"><g stroke="#001a72" stroke-linecap="round" stroke-linejoin="round" stroke-width="1.5"><path d="m20 14.8335c1.3082-1.5018 2-2.8335 2-2.8335s-3.6364-7-10-7c-.3412 0-.6746.02013-1 .05822-.3422.04006-.6756.1-1 .1773"/><path d="m12 9c.3506 0 .6872.06015 1 .17071.8524.30128 1.528.97689 1.8293 1.82929.1105.3128.1707.6494.1707 1"/><path d="m3 3 18 18"/><path d="m12 15c-.3506 0-.6872-.0602-1-.1707-.8524-.3013-1.52802-.9769-1.8293-1.8293-.05684-.1608-.10036-.3279-.12923-.5"/><path d="m4.14701 9c-.30824.34451-.58467.68241-.82837 1-.86578 1.1282-1.31864 2-1.31864 2s3.63636 7 10 7c.3412 0 .6746-.0201 1-.0582"/></g></svg>